<?xml version="1.0" standalone="no"?>
<!DOCTYPE svg PUBLIC "-//W3C//DTD SVG 20010904//EN"
        "http://www.w3.org/TR/2001/REC-SVG-20010904/DTD/svg10.dtd">
<svg version="1.0" xmlns="http://www.w3.org/2000/svg"
     width="946.000000pt" height="335.000000pt" viewBox="0 0 946.000000 335.000000"
     preserveAspectRatio="xMidYMid meet">

    <g transform="translate(0.000000,335.000000) scale(0.100000,-0.100000)"
       fill="#ffffff" stroke="none">
        <path d="M4340 2525 l0 -705 104 0 104 0 6 31 c3 17 6 44 6 60 0 35 4 36 33 8
75 -72 181 -109 309 -109 156 0 265 42 361 137 99 98 147 221 147 382 0 154
-48 279 -145 377 -107 108 -218 149 -384 142 -119 -6 -188 -27 -273 -84 l-51
-35 6 251 7 250 -115 0 -115 0 0 -705z m649 105 c63 -32 108 -77 138 -138 25
-50 28 -68 28 -152 0 -84 -3 -102 -28 -152 -113 -231 -411 -233 -529 -5 -27
52 -37 194 -18 253 45 142 169 231 307 220 34 -3 80 -14 102 -26z"/>
        <path d="M1219 2980 c-572 -91 -1015 -529 -1114 -1104 -20 -115 -19 -317 1
-437 48 -279 176 -522 382 -721 192 -187 414 -302 679 -354 132 -26 366 -24
503 5 257 55 483 175 661 350 515 511 524 1334 21 1862 -189 199 -409 323
-678 384 -82 19 -372 28 -455 15z m350 -545 c230 -48 436 -206 541 -415 69
-137 101 -313 83 -453 -26 -191 -98 -334 -237 -472 -73 -73 -109 -100 -183
-138 -132 -68 -221 -90 -368 -90 -180 0 -316 41 -461 141 -390 267 -448 839
-121 1189 111 118 261 206 411 238 83 18 249 18 335 0z"/>
        <path d="M1301 2064 c-120 -32 -227 -121 -279 -231 -24 -52 -27 -69 -27 -173
0 -111 1 -118 34 -182 81 -163 265 -260 436 -231 125 21 229 89 294 191 72
114 81 277 21 398 -58 118 -170 206 -298 233 -68 14 -114 13 -181 -5z"/>
        <path d="M3655 2850 c-175 -24 -290 -107 -329 -239 -25 -85 -30 -81 93 -81
107 0 109 0 115 24 9 36 54 85 93 101 20 8 67 15 105 15 133 0 208 -69 208
-192 l0 -38 -72 0 c-112 0 -296 -18 -370 -36 -160 -38 -238 -146 -226 -313 11
-150 113 -252 280 -281 121 -21 263 15 359 91 l39 31 0 -56 0 -56 106 0 105 0
-3 388 c-4 338 -6 393 -22 433 -22 59 -75 122 -130 154 -79 46 -235 71 -351
55z m282 -627 c-9 -98 -43 -148 -129 -192 -57 -29 -76 -34 -136 -33 -117 0
-172 45 -172 138 0 65 32 108 91 124 52 14 174 27 273 29 l79 1 -6 -67z"/>
        <path d="M5905 2849 c-196 -22 -315 -118 -344 -275 l-8 -44 108 0 107 0 12 34
c22 69 92 106 198 106 126 0 202 -68 202 -181 l0 -46 -148 -6 c-172 -8 -304
-29 -368 -58 -161 -76 -205 -314 -84 -461 39 -47 136 -95 219 -109 118 -19
259 18 352 92 l39 31 0 -56 0 -56 106 0 105 0 -3 393 c-3 385 -3 393 -26 442
-27 58 -82 119 -132 145 -86 44 -214 63 -335 49z m272 -624 c-10 -110 -47
-160 -153 -206 -59 -27 -166 -29 -212 -5 -68 35 -96 143 -52 199 38 48 150 72
344 76 l79 1 -6 -65z"/>
        <path d="M6928 2834 c-28 -8 -65 -31 -89 -54 -46 -43 -54 -48 -45 -25 3 8 3
29 -1 45 l-5 30 -111 0 -110 0 6 -122 c4 -66 7 -294 7 -505 l0 -383 109 0 110
0 3 323 c3 314 4 323 27 375 42 93 122 137 236 130 l65 -4 0 97 c0 92 -1 97
-22 103 -39 10 -131 5 -180 -10z"/>
        <path d="M3604 1485 c-250 -54 -394 -280 -362 -568 21 -193 134 -336 316 -399
92 -31 249 -31 336 1 79 28 148 73 197 130 39 44 84 119 77 126 -2 2 -49 15
-105 28 l-101 24 -33 -46 c-64 -87 -169 -119 -287 -89 -66 17 -143 94 -161
163 -7 28 -15 58 -18 68 -4 16 18 17 358 17 l362 0 -6 88 c-11 153 -55 261
-141 347 -106 107 -264 147 -432 110z m194 -181 c71 -29 141 -120 142 -181 l0
-23 -236 0 -236 0 6 31 c15 78 74 150 142 174 52 19 136 18 182 -1z"/>
        <path d="M4720 1489 c-60 -12 -96 -27 -147 -61 l-43 -29 0 41 0 40 -109 0
-109 0 5 -482 5 -483 104 -3 104 -3 0 258 c0 357 14 426 103 497 32 26 48 31
106 34 83 5 137 -19 172 -75 24 -38 24 -41 27 -376 l3 -338 110 3 110 3 -1
358 c0 339 -2 360 -22 414 -38 103 -137 179 -263 202 -67 12 -91 12 -155 0z"/>
        <path d="M5647 1490 c-66 -12 -166 -60 -217 -106 -100 -90 -150 -210 -150
-362 0 -169 41 -272 147 -373 167 -159 447 -174 597 -31 l38 37 -5 -98 c-9
-154 -58 -233 -168 -272 -54 -19 -155 -19 -210 0 -53 19 -115 77 -130 122
l-11 33 -109 0 -108 0 6 -32 c12 -67 45 -137 83 -180 97 -111 294 -161 500
-127 131 21 252 105 313 217 52 96 55 135 52 668 l-3 489 -99 0 -98 0 -3 -52
-3 -52 -47 36 c-103 79 -231 107 -375 83z m250 -208 c102 -53 159 -165 151
-300 -5 -86 -27 -140 -79 -191 -137 -138 -372 -84 -435 100 -60 175 19 359
176 410 42 14 142 3 187 -19z"/>
        <path d="M6746 1490 c-75 -12 -171 -57 -215 -101 -36 -36 -75 -112 -85 -166
l-5 -33 102 0 102 1 20 41 c30 60 79 83 180 83 128 0 185 -46 193 -155 l4 -60
-73 0 c-99 0 -290 -18 -348 -32 -92 -22 -156 -71 -197 -148 -28 -53 -27 -201
3 -255 99 -185 380 -229 573 -91 l49 35 3 -47 3 -47 103 -3 102 -3 0 329 c0
432 -8 473 -110 566 -37 33 -70 51 -117 66 -77 24 -205 32 -287 20z m294 -582
c-1 -133 -110 -228 -262 -228 -99 0 -158 48 -158 130 0 59 24 93 83 114 38 14
180 31 295 35 l42 1 0 -52z"/>
        <path d="M7725 1488 c-164 -31 -306 -173 -346 -344 -18 -80 -13 -220 10 -295
68 -217 254 -341 488 -326 98 6 172 36 232 96 l41 41 0 -47 c0 -124 -32 -224
-87 -274 -56 -53 -90 -64 -194 -64 -89 0 -99 2 -145 30 -37 23 -55 43 -74 82
l-25 52 -109 1 -108 0 7 -37 c38 -209 230 -327 506 -310 216 13 372 127 423
307 19 70 21 135 18 653 l-2 427 -99 0 -100 0 -6 -55 -7 -55 -36 31 c-93 82
-242 115 -387 87z m226 -193 c65 -22 113 -67 148 -135 115 -232 -52 -493 -283
-441 -273 61 -285 500 -16 582 42 12 104 10 151 -6z"/>
        <path d="M8870 1489 c-132 -22 -273 -126 -330 -243 -102 -207 -67 -466 82
-614 226 -225 638 -170 777 105 l21 41 -98 22 c-53 12 -100 23 -103 24 -3 0
-21 -19 -40 -44 -90 -119 -276 -135 -383 -32 -41 39 -69 93 -80 155 l-7 37
362 0 361 0 -7 83 c-14 157 -53 254 -136 342 -103 109 -248 152 -419 124z
m163 -180 c52 -14 106 -64 133 -124 43 -90 56 -85 -211 -85 l-235 0 0 23 c0
37 49 125 82 149 64 45 151 59 231 37z"/>
    </g>
</svg>
