<svg width="44" height="45" viewBox="0 0 44 45" fill="none" xmlns="http://www.w3.org/2000/svg">
<g filter="url(#filter0_d)">
<path d="M24.8284 39.1716C23.2663 40.7337 20.7337 40.7337 19.1716 39.1716L3.82843 23.8284C2.26633 22.2663 2.26633 19.7337 3.82843 18.1716L19.1716 2.82843C20.7337 1.26633 23.2663 1.26633 24.8284 2.82843L40.1716 18.1716C41.7337 19.7337 41.7337 22.2663 40.1716 23.8284L24.8284 39.1716Z" fill="#FACF60"/>
</g>
<path d="M28.1895 20.44L24.9495 18.82C26.2395 17.82 27.0695 16.26 27.0695 14.5C27.0695 11.47 24.5995 8.99997 21.5695 8.99997C18.5395 8.99997 16.0695 11.47 16.0695 14.5C16.0695 16.63 17.2895 18.48 19.0695 19.39V22.65C16.9195 22.19 17.0495 22.21 16.8095 22.21C16.2795 22.21 15.7795 22.42 15.3995 22.8L13.9995 24.22L19.0895 29.31C19.5195 29.75 20.1195 30 20.7395 30H27.0395C28.0195 30 28.8495 29.3 29.0095 28.33L29.8095 23.62C30.0295 22.32 29.3795 21.04 28.1895 20.44ZM27.8395 23.29L27.0395 28H20.7395C20.6495 28 20.5695 27.96 20.4995 27.9L16.8195 24.22L21.0695 25.11V14.5C21.0695 14.22 21.2895 14 21.5695 14C21.8495 14 22.0695 14.22 22.0695 14.5V20.5H23.8295L27.2895 22.23C27.6895 22.43 27.9095 22.86 27.8395 23.29ZM18.0695 14.5C18.0695 12.57 19.6395 11 21.5695 11C23.4995 11 25.0695 12.57 25.0695 14.5C25.0695 15.45 24.6895 16.31 24.0695 16.94V14.5C24.0695 13.12 22.9495 12 21.5695 12C20.1895 12 19.0695 13.12 19.0695 14.5V16.94C18.4495 16.31 18.0695 15.45 18.0695 14.5Z" fill="black"/>
<defs>
<filter id="filter0_d" x="0.656738" y="1.65686" width="42.6863" height="42.6863" filterUnits="userSpaceOnUse" color-interpolation-filters="sRGB">
<feFlood flood-opacity="0" result="BackgroundImageFix"/>
<feColorMatrix in="SourceAlpha" type="matrix" values="0 0 0 0 0 0 0 0 0 0 0 0 0 0 0 0 0 0 127 0" result="hardAlpha"/>
<feOffset dy="2"/>
<feGaussianBlur stdDeviation="1"/>
<feColorMatrix type="matrix" values="0 0 0 0 0.882353 0 0 0 0 0.729412 0 0 0 0 0.337255 0 0 0 1 0"/>
<feBlend mode="normal" in2="BackgroundImageFix" result="effect1_dropShadow"/>
<feBlend mode="normal" in="SourceGraphic" in2="effect1_dropShadow" result="shape"/>
</filter>
</defs>
</svg>
