<svg width="45" height="45" viewBox="0 0 45 45" fill="none" xmlns="http://www.w3.org/2000/svg">
<g filter="url(#filter0_d)">
<path d="M21.8042 41C22.5912 41 23.3644 41 24.1515 41C24.5519 40.9448 24.9523 40.9033 25.3389 40.848C29.923 40.2954 33.9409 38.4439 37.1166 35.0864C42.9985 28.855 44.5036 21.5734 41.4659 13.532C38.3455 5.29709 29.7158 0.171014 20.962 1.11056C17.7034 1.45599 14.6796 2.49226 11.9595 4.32991C7.25123 7.52162 4.35168 11.9154 3.31612 17.5251C3.17805 18.285 3.10901 19.0588 2.99855 19.8325C2.99855 20.6201 2.99855 21.3938 2.99855 22.1814C3.02617 22.2919 3.05378 22.4024 3.06759 22.513C3.26089 25.304 4.00649 27.943 5.34581 30.3886C8.45247 36.0259 13.1746 39.4664 19.4984 40.6822C20.2578 40.8204 21.031 40.8895 21.8042 41ZM22.964 27.2522C21.3486 27.2522 19.7469 27.2522 18.1314 27.2522C17.2202 27.2522 16.7231 26.7548 16.7231 25.8567C16.7231 22.6235 16.7231 19.4042 16.7231 16.171C16.7231 15.2453 17.2202 14.7617 18.1453 14.7479C21.3624 14.7479 24.5657 14.7479 27.7828 14.7479C28.7079 14.7479 29.205 15.2315 29.205 16.171C29.205 19.3904 29.205 22.5959 29.205 25.8152C29.205 26.7686 28.7079 27.2522 27.7552 27.2522C26.1673 27.2522 24.5657 27.2522 22.964 27.2522Z" fill="#FEC9C6"/>
</g>
<path d="M22.9661 27.2522C24.5678 27.2522 26.1694 27.2522 27.7573 27.2522C28.71 27.2522 29.207 26.7686 29.207 25.8152C29.207 22.5959 29.207 19.3903 29.207 16.171C29.207 15.2453 28.71 14.7617 27.7849 14.7479C24.5678 14.7479 21.3644 14.7479 18.1473 14.7479C17.2222 14.7479 16.7252 15.2453 16.7252 16.171C16.7252 19.4042 16.7252 22.6235 16.7252 25.8567C16.7252 26.7548 17.2222 27.2522 18.1335 27.2522C19.749 27.2522 21.3644 27.2522 22.9661 27.2522Z" fill="#C01C12"/>
<defs>
<filter id="filter0_d" x="0.998535" y="1" width="43.9971" height="44" filterUnits="userSpaceOnUse" color-interpolation-filters="sRGB">
<feFlood flood-opacity="0" result="BackgroundImageFix"/>
<feColorMatrix in="SourceAlpha" type="matrix" values="0 0 0 0 0 0 0 0 0 0 0 0 0 0 0 0 0 0 127 0"/>
<feOffset dy="2"/>
<feGaussianBlur stdDeviation="1"/>
<feColorMatrix type="matrix" values="0 0 0 0 0.752941 0 0 0 0 0.109804 0 0 0 0 0.0705882 0 0 0 0.25 0"/>
<feBlend mode="normal" in2="BackgroundImageFix" result="effect1_dropShadow"/>
<feBlend mode="normal" in="SourceGraphic" in2="effect1_dropShadow" result="shape"/>
</filter>
</defs>
</svg>
