<svg width="248" height="179" viewBox="0 0 248 179" fill="none" xmlns="http://www.w3.org/2000/svg">
<path d="M239.685 178.598C226.164 168.332 203.064 142.853 233.488 102.789C271.173 53.2727 226.038 32.9903 182.782 35.1187C147.976 36.8089 108.851 -6.88586 69.7888 0.939136C17.956 11.3307 51.6348 55.9645 16.4536 80.0029C-13.4066 100.473 -0.573601 162.948 38.4262 178.598H139.056H239.685Z" fill="#DCEDF9"/>
<path d="M119.681 50.5183C128.186 50.5183 135.081 43.6237 135.081 35.1187C135.081 26.6138 128.186 19.7191 119.681 19.7191C111.176 19.7191 104.281 26.6138 104.281 35.1187C104.281 43.6237 111.176 50.5183 119.681 50.5183Z" fill="#007CFF"/>
<path opacity="0.6" d="M132.577 35.1187C132.577 42.2551 126.817 48.0143 119.681 48.0143C116.301 48.0143 113.233 46.6997 110.98 44.5713C108.413 42.1925 106.848 38.8747 106.848 35.1187C106.848 27.9823 112.607 22.2231 119.744 22.2231C123.5 22.2231 126.88 23.8507 129.259 26.4173C131.262 28.7961 132.577 31.8009 132.577 35.1187Z" fill="white"/>
<path d="M132.577 35.1187C132.577 42.2551 126.817 48.0143 119.681 48.0143C116.301 48.0143 113.233 46.6997 110.98 44.5713C108.851 42.2551 107.537 39.1877 107.537 35.8073C107.537 28.6709 113.296 22.9117 120.432 22.9117C123.813 22.9117 126.943 24.2263 129.196 26.3547C131.262 28.7961 132.577 31.8009 132.577 35.1187Z" fill="white"/>
<path d="M119.681 35.8699C119.493 35.8699 119.305 35.8073 119.18 35.6195L112.92 29.3595C112.607 29.0465 112.607 28.6083 112.92 28.2953C113.233 27.9823 113.671 27.9823 113.984 28.2953L119.744 34.0545L123.061 30.7367C123.374 30.4237 123.813 30.4237 124.126 30.7367C124.439 31.0497 124.439 31.4879 124.126 31.8009L120.244 35.6821C120.057 35.8073 119.869 35.8699 119.681 35.8699Z" fill="#1A2E35"/>
<path d="M97.0824 51.2069C97.6458 52.8971 102.904 53.7734 103.342 53.3352C106.159 46.1988 103.217 32.1138 103.217 32.1138L100.588 30.9244C100.525 30.9244 99.5864 41.7542 97.0824 51.2069Z" fill="#E8A777"/>
<path d="M83.999 65.1666C88.8818 63.6016 102.779 54.8376 103.405 53.0848L97.5832 49.9548C97.5832 49.9548 81.7454 56.966 79.1788 58.2806C74.7342 60.4716 75.9862 67.7332 83.999 65.1666Z" fill="#E8A777"/>
<path d="M62.7149 40.8153C62.7149 40.8153 62.6523 40.8153 62.7149 40.8153C61.7133 42.6933 56.9557 43.1315 58.2077 49.1411C58.5833 50.8939 60.6491 52.0833 62.4645 52.1459C65.5945 52.3337 68.4741 51.1443 69.7887 52.3337C73.9829 56.3401 82.8721 63.8521 84.1867 60.2213C84.5623 59.0945 93.2011 52.2711 92.3873 44.5713C91.9491 40.6901 87.4419 43.0689 87.7549 38.5617C88.1305 33.5537 86.6907 29.1091 82.6843 26.8555C78.6153 24.5393 73.5447 26.7929 73.5447 26.7929C73.5447 26.7929 69.2253 25.2905 65.3441 29.5473C62.7775 32.4269 63.5287 35.2439 63.2783 38.6869C63.1531 40.6275 62.1515 40.8153 61.0247 42.1925C59.8979 43.5697 58.5833 44.0705 58.2077 45.7607C57.0183 51.1443 58.2077 58.0303 58.3955 63.5391C58.4581 65.8553 58.3955 68.6097 56.5801 70.0495C56.3923 70.2373 56.0793 70.4251 56.1419 70.7381C56.2045 70.9885 56.5175 71.1137 56.8305 71.1763C58.9589 71.4893 61.1499 71.4893 63.3409 71.4893C64.5303 71.4893 65.8449 71.4267 66.5961 70.4877C67.0343 69.9243 67.0969 69.1731 67.2221 68.4219C67.5977 64.9789 68.1611 61.5359 69.8513 58.5311C70.4773 57.4669 71.2911 56.4027 71.4789 55.1507C71.6667 53.8987 71.0407 52.3963 69.7887 52.2085" fill="#0B0754"/>
<path d="M88.1305 80.3784C88.1305 76.1842 91.7613 69.8617 90.0085 65.6675C88.7565 62.2871 86.6281 56.5279 83.9989 55.5889C82.7469 55.1507 81.4949 54.8377 79.9925 54.3995C79.9925 54.3995 80.4933 57.2165 78.6779 57.3417C75.2349 57.5921 73.4195 53.2101 73.4195 53.2101C71.5415 53.0223 63.0905 55.7767 62.6523 57.1539C62.6523 62.6627 67.4725 70.0495 68.9749 75.9964C69.5383 82.4442 68.1611 85.8246 68.1611 86.5758C68.1611 86.5758 80.3055 90.6448 88.4435 86.1377C88.4435 86.0751 88.1305 83.1954 88.1305 80.3784Z" fill="#92B5F8"/>
<path d="M78.3649 49.4541L72.9813 48.6403L73.2317 53.0849C73.2317 53.0849 74.6715 57.9677 77.7389 58.0303C80.8063 58.0929 79.9299 54.2743 79.9299 54.2743L78.3649 49.4541Z" fill="#E8A777"/>
<path d="M68.0359 42.3176C69.4131 48.0768 74.2333 51.8954 78.7405 50.8312C79.8673 50.5808 80.8689 50.0174 81.7453 49.2662C82.1209 48.9532 82.6217 48.515 82.8095 48.1394C83.1225 47.576 83.0599 46.8874 83.2477 46.324C83.4355 45.698 83.8737 45.0094 84.5623 44.9468C84.8753 44.8842 85.1883 45.0094 85.4387 44.8842C85.7517 44.759 85.8769 44.446 85.8769 44.133C85.8769 43.82 85.7517 43.507 85.6891 43.194C85.6891 43.1314 85.6265 43.0062 85.6265 42.9436C85.0005 41.003 84.7501 38.9998 84.1241 37.1218C83.5607 35.5568 82.6843 34.0544 81.5575 32.8024C79.6169 30.674 76.6747 29.2968 73.7951 29.9854C69.2253 30.9244 66.6587 36.4958 68.0359 42.3176Z" fill="#E8A777"/>
<path d="M70.2269 42.3176C71.3537 43.194 71.6667 44.6338 70.9781 45.5102C70.2895 46.3866 68.7871 46.4492 67.7229 45.5728C66.5961 44.6964 66.2831 43.3192 66.9717 42.3802C67.6603 41.5038 69.1627 41.4412 70.2269 42.3176Z" fill="#E8A777"/>
<path d="M67.9733 41.7543C73.4195 41.0031 80.9941 35.4943 81.6201 32.6773C80.5559 29.2969 74.9845 27.5441 71.8545 29.1717C68.6619 30.7367 65.6571 37.4975 67.9733 41.7543Z" fill="#0B0754"/>
<path d="M83.373 162.134C82.9974 158.566 84.8754 131.335 84.8754 131.335C90.0712 107.359 88.068 90.2693 88.068 90.2693L79.1162 90.8953L75.548 104.417L77.2382 127.015C77.2382 127.015 76.6122 128.768 76.2992 130.145C74.4838 137.657 76.2992 146.734 77.426 152.681C77.9268 155.436 78.7406 161.32 78.7406 162.635L76.487 165.577C76.487 165.577 84.625 174.591 85.877 174.654C88.3184 174.779 87.5672 172.338 87.5672 172.338C84.2494 168.895 83.4982 163.136 83.373 162.134Z" fill="#E8A777"/>
<path d="M76.2992 168.77L76.7374 174.592L77.8016 174.654L78.3024 169.271C81.0568 169.959 83.06 175.03 83.06 175.03C85.0006 175.718 89.8208 176.157 91.5736 175.28C92.0118 173.59 87.5672 172.401 87.5672 172.401C87.1916 172.901 84.8128 173.214 83.9364 172.714C80.869 170.084 79.304 166.266 78.678 162.698C78.678 162.635 73.7952 162.948 76.2992 168.77Z" fill="#94C7FF"/>
<path d="M80.3681 91.9595L67.7229 90.2067C62.9027 101.162 61.3377 120.192 60.0231 127.015C54.7647 135.842 53.0745 162.635 53.0745 162.635L50.8209 165.577C50.8209 165.577 58.9589 174.591 60.2109 174.654C62.6523 174.779 61.9011 172.338 61.9011 172.338C58.5207 168.895 57.8947 164.325 57.7069 163.323C57.3939 161.821 67.9107 132.086 67.9107 132.086L69.0375 129.269C81.9331 107.985 84.0615 91.8343 84.0615 91.8343L80.3681 91.9595Z" fill="#E8A777"/>
<path d="M50.6331 168.77L51.0713 174.592L52.1355 174.654L52.6363 169.271C55.3907 169.959 57.3939 175.03 57.3939 175.03C59.3345 175.718 64.1547 176.157 65.9075 175.28C66.3457 173.59 61.9011 172.401 61.9011 172.401C61.5255 172.901 59.1467 173.214 58.2703 172.714C55.2029 170.084 53.6379 166.266 53.0119 162.698C53.0745 162.635 48.1291 162.948 50.6331 168.77Z" fill="#94C7FF"/>
<path d="M56.8306 125.763C58.0826 121.569 57.5818 91.7716 68.7246 83.5084L87.8802 85.0734C92.3248 92.2724 90.6972 110.927 89.1948 126.264C80.1804 129.519 73.044 130.834 56.8306 125.763Z" fill="#92B5F8"/>
<path d="M111.919 58.4059C110.729 58.4685 109.289 58.0929 108.476 58.9693L106.347 56.5279C108.413 53.2101 113.296 52.0833 113.797 52.0207C115.111 51.8955 115.675 51.7703 115.8 51.9581C115.925 52.1459 116.238 53.2727 114.36 53.5231C111.981 53.8361 113.546 55.7141 118.366 53.8987C119.556 53.4605 121.809 54.0239 120.996 54.9003C120.057 55.9019 117.49 58.0929 111.919 58.4059Z" fill="#E8A777"/>
<path d="M87.3168 65.6674C86.19 67.2951 88.7566 72.6787 89.4452 72.7413C97.8336 70.6129 108.726 58.7189 108.726 58.7189L108.1 55.5262C108.1 55.5262 97.5832 61.8488 87.3168 65.6674Z" fill="#E8A777"/>
<path d="M64.7808 65.8553C69.7888 68.7349 87.6924 73.4925 89.5704 72.6161L87.6924 65.4171C87.6924 65.4171 69.7888 57.7173 66.784 56.5905C61.5256 54.6499 56.5176 61.2229 64.7808 65.8553Z" fill="#E8A777"/>
<path d="M99.5863 30.1107C100.025 29.4221 100.651 28.8587 101.214 28.2953C102.216 27.2311 103.593 26.4799 105.095 26.2295C105.408 26.1669 105.721 26.1669 105.909 26.4173C106.034 26.6677 105.846 26.9807 105.721 27.2311C105.283 27.9197 105.158 28.7335 104.97 29.5473C104.97 29.6725 104.907 29.7351 104.97 29.8603C105.095 30.1107 105.596 30.0481 105.784 30.2359C105.971 30.4237 105.784 30.7367 105.596 30.8619C105.345 30.9871 105.095 30.9871 104.845 30.9871C103.78 31.1123 102.904 32.1139 102.904 33.1781C101.402 32.6773 100.463 31.3627 99.5863 30.1107Z" fill="#E8A777"/>
<path d="M205.881 165.953H127.819L114.172 109.3H192.234L205.881 165.953Z" fill="#A6A6A6"/>
<path d="M100.275 165.953H178.337L191.984 109.3H113.922L100.275 165.953Z" fill="#DBDBDB"/>
<path d="M180.653 119.942L178.901 127.141L178.838 127.579L177.023 135.091L176.897 135.529L175.145 143.041L175.019 143.542L173.204 151.054L173.079 151.492L171.326 158.816H114.047L115.8 151.492L115.862 151.054L117.678 143.542L117.803 143.041L119.618 135.529L119.744 135.091L121.496 127.579L121.622 127.141L123.374 119.942H180.653Z" fill="white"/>
<path d="M131.763 119.942L130.01 127.141L129.885 127.579L128.132 135.091L128.007 135.529L126.191 143.041L126.066 143.542L124.313 151.054L124.188 151.492L122.435 158.816H121.935L123.75 151.492L123.813 151.054L125.628 143.542L125.753 143.041L127.569 135.529L127.631 135.091L129.447 127.579L129.572 127.141L131.325 119.942H131.763Z" fill="#EBEBEB"/>
<path d="M139.901 119.942L138.211 127.141L138.085 127.579L136.27 135.091L136.145 135.529L134.392 143.041L134.267 143.542L132.451 151.054L132.326 151.492L130.573 158.816H130.135L131.888 151.492L132.013 151.054L133.829 143.542L133.891 143.041L135.707 135.529L135.832 135.091L137.647 127.579L137.71 127.141L139.463 119.942H139.901Z" fill="#EBEBEB"/>
<path d="M148.101 119.942L146.349 127.141L146.223 127.579L144.471 135.091L144.345 135.529L142.53 143.041L142.405 143.542L140.652 151.054L140.527 151.492L138.774 158.816H138.273L140.089 151.492L140.151 151.054L141.967 143.542L142.092 143.041L143.845 135.529L143.97 135.091L145.785 127.579L145.91 127.141L147.601 119.942H148.101Z" fill="#EBEBEB"/>
<path d="M156.239 119.942L154.487 127.141L154.424 127.579L152.609 135.091L152.483 135.529L150.668 143.041L150.605 143.542L148.79 151.054L148.665 151.492L146.912 158.816H146.474L148.227 151.492L148.352 151.054L150.105 143.542L150.23 143.041L152.045 135.529L152.17 135.091L153.923 127.579L154.048 127.141L155.801 119.942H156.239Z" fill="#EBEBEB"/>
<path d="M164.44 119.942L162.687 127.141L162.562 127.579L160.747 135.091L160.684 135.529L158.869 143.041L158.743 143.542L156.928 151.054L156.865 151.492L155.05 158.816H154.612L156.365 151.492L156.49 151.054L158.305 143.542L158.43 143.041L160.183 135.529L160.308 135.091L162.124 127.579L162.249 127.141L163.939 119.942H164.44Z" fill="#EBEBEB"/>
<path d="M172.578 119.942L170.825 127.141L170.763 127.579L168.947 135.091L168.822 135.529L167.007 143.041L166.944 143.542L165.129 151.054L165.003 151.492L163.251 158.816H162.812L164.565 151.492L164.69 151.054L166.443 143.542L166.568 143.041L168.384 135.529L168.446 135.091L170.262 127.579L170.387 127.141L172.14 119.942H172.578Z" fill="#EBEBEB"/>
<path d="M178.901 127.141L178.838 127.579H121.496L121.622 127.141H178.901Z" fill="#EBEBEB"/>
<path d="M177.023 135.091L176.897 135.529H119.618L119.744 135.091H177.023Z" fill="#EBEBEB"/>
<path d="M175.145 143.041L175.019 143.542H117.678L117.803 143.041H175.145Z" fill="#EBEBEB"/>
<path d="M173.204 151.054L173.079 151.492H115.8L115.862 151.054H173.204Z" fill="#EBEBEB"/>
<path d="M128.817 135.784L127.94 136.492L132.934 142.677L133.811 141.969L128.817 135.784Z" fill="#C7C7C7"/>
<path d="M133.852 135.72L126.959 142.004L127.718 142.836L134.611 136.553L133.852 135.72Z" fill="#C7C7C7"/>
<path d="M146.899 128.047L146.022 128.755L151.016 134.94L151.893 134.232L146.899 128.047Z" fill="#C7C7C7"/>
<path d="M151.976 128.021L145.083 134.304L145.843 135.137L152.735 128.853L151.976 128.021Z" fill="#C7C7C7"/>
<path d="M124.063 134.966L121.935 131.272L122.936 130.771L124.251 133.025L129.008 127.266L129.885 127.954L124.063 134.966Z" fill="#FFC727"/>
<path d="M134.267 158.441L132.138 154.747L133.077 154.184L134.392 156.5L139.212 150.678L140.089 151.367L134.267 158.441Z" fill="#FFC727"/>
<path d="M163.251 135.905C162.249 136.468 161.247 137.157 160.434 137.97C159.62 138.784 158.931 139.786 158.806 140.85C158.743 141.413 158.806 141.914 159.182 142.29C159.495 142.665 160.058 142.916 160.559 143.041C161.623 143.291 162.812 143.229 163.939 142.978C165.066 142.728 166.13 142.29 167.007 141.539C167.445 141.163 167.82 140.787 168.071 140.287C168.321 139.786 168.446 139.285 168.384 138.722C168.321 138.221 168.008 137.72 167.507 137.407C167.069 137.094 166.506 136.844 165.942 136.718C164.816 136.468 163.626 136.468 162.499 136.781C163.626 136.343 164.816 136.28 166.005 136.468C166.568 136.593 167.194 136.781 167.695 137.094C168.196 137.407 168.634 137.97 168.759 138.596C168.885 139.222 168.697 139.911 168.446 140.474C168.133 141.038 167.758 141.539 167.257 141.914C166.318 142.728 165.191 143.229 164.002 143.479C162.812 143.73 161.56 143.792 160.371 143.479C159.808 143.291 159.182 143.041 158.743 142.54C158.556 142.29 158.368 141.977 158.305 141.664C158.243 141.351 158.243 141.038 158.305 140.725C158.493 139.473 159.307 138.471 160.183 137.657C161.185 136.969 162.186 136.343 163.251 135.905Z" fill="#FFC727"/>
<path d="M129.948 121.945H123.876L124.064 121.194H130.136L129.948 121.945Z" fill="#C7C7C7"/>
<path d="M127.193 123.197H123.562L123.75 122.446H127.318L127.193 123.197Z" fill="#C7C7C7"/>
<path d="M154.674 145.295H150.981L151.169 144.606H154.862L154.674 145.295Z" fill="#C7C7C7"/>
<path d="M154.111 147.924H150.418L150.605 147.173H154.299L154.111 147.924Z" fill="#C7C7C7"/>
<path d="M156.49 146.609H150.731L150.856 145.858H156.678L156.49 146.609Z" fill="#C7C7C7"/>
<path d="M164.316 139.598H160.56L160.747 138.847H164.441L164.316 139.598Z" fill="#C7C7C7"/>
<path d="M166.13 140.85H160.308L160.496 140.099H166.255L166.13 140.85Z" fill="#C7C7C7"/>
<path d="M114.548 125.889L118.116 123.197C118.554 122.884 118.805 122.446 118.93 122.008C118.992 121.632 118.992 121.256 118.742 120.943C118.492 120.568 118.116 120.38 117.678 120.38C117.302 120.38 116.864 120.505 116.488 120.818L116.113 121.069C115.988 121.131 115.862 121.131 115.8 121.069C115.737 121.006 115.8 120.818 115.862 120.756L116.238 120.443C116.739 120.067 117.24 119.879 117.74 119.879C118.304 119.879 118.805 120.067 119.118 120.568C119.368 120.943 119.431 121.444 119.368 121.945C119.243 122.508 118.867 123.072 118.304 123.51L115.236 125.826H118.241C118.366 125.826 118.429 125.951 118.429 126.077C118.429 126.202 118.304 126.264 118.179 126.264H114.673H114.61C114.548 126.264 114.485 126.264 114.485 126.202C114.423 126.077 114.423 125.951 114.548 125.889Z" fill="#A6A6A6"/>
<path d="M112.795 133.964C112.983 133.088 113.358 132.337 113.922 131.773C114.423 131.21 115.111 130.834 115.737 130.834C116.363 130.834 116.864 131.21 117.114 131.773C117.365 132.337 117.427 133.15 117.24 133.964C117.052 134.841 116.614 135.592 116.113 136.155C115.612 136.719 114.923 137.094 114.297 137.094C113.671 137.094 113.171 136.719 112.92 136.155C112.607 135.592 112.607 134.778 112.795 133.964ZM113.233 133.964C113.045 134.715 113.108 135.467 113.296 135.905C113.484 136.406 113.859 136.656 114.36 136.656C114.798 136.656 115.299 136.406 115.737 135.905C116.175 135.404 116.551 134.715 116.739 133.964C116.927 133.213 116.864 132.462 116.676 132.024C116.426 131.523 116.113 131.272 115.612 131.272C115.111 131.272 114.673 131.523 114.235 132.024C113.797 132.462 113.421 133.15 113.233 133.964Z" fill="#A6A6A6"/>
<path d="M109.54 147.611L113.108 144.919C113.546 144.606 113.797 144.168 113.922 143.73C113.984 143.354 113.984 142.979 113.734 142.666C113.484 142.29 113.108 142.102 112.67 142.102C112.294 142.102 111.856 142.227 111.48 142.54L111.105 142.791C110.98 142.853 110.854 142.853 110.792 142.791C110.729 142.728 110.792 142.54 110.854 142.478L111.23 142.165C111.731 141.789 112.232 141.601 112.732 141.601C113.296 141.601 113.797 141.789 114.11 142.29C114.36 142.666 114.423 143.166 114.36 143.667C114.235 144.231 113.859 144.794 113.296 145.232L110.228 147.548H113.233C113.358 147.548 113.421 147.674 113.421 147.799C113.421 147.924 113.296 147.986 113.171 147.986H109.665H109.602C109.54 147.986 109.477 147.986 109.477 147.924C109.415 147.799 109.415 147.673 109.54 147.611Z" fill="#A6A6A6"/>
<path d="M107.787 155.686C107.975 154.81 108.35 154.059 108.914 153.495C109.415 152.932 110.103 152.556 110.729 152.556C111.355 152.556 111.856 152.932 112.106 153.495C112.357 154.059 112.419 154.873 112.232 155.686C112.044 156.563 111.606 157.314 111.105 157.877C110.604 158.441 109.915 158.816 109.289 158.816C108.663 158.816 108.163 158.441 107.912 157.877C107.599 157.314 107.599 156.5 107.787 155.686ZM108.225 155.686C108.037 156.438 108.1 157.189 108.288 157.627C108.476 158.128 108.851 158.378 109.352 158.378C109.79 158.378 110.291 158.128 110.729 157.627C111.167 157.126 111.543 156.438 111.731 155.686C111.919 154.935 111.856 154.184 111.668 153.746C111.418 153.245 111.105 152.995 110.604 152.995C110.166 152.995 109.665 153.245 109.227 153.746C108.789 154.184 108.413 154.873 108.225 155.686Z" fill="#A6A6A6"/>
<path d="M181.655 118.377C181.655 118.377 179.902 125.889 179.214 129.081C178.462 132.274 175.458 134.277 175.458 134.277H158.931C158.931 134.277 161.873 130.771 162.499 128.205C163.125 125.638 164.753 118.439 164.753 118.439H181.655V118.377Z" fill="#FFC727"/>
<path d="M116.363 113.118C115.8 113.118 115.236 112.868 114.861 112.367C114.485 111.929 113.859 110.865 114.485 108.924C115.049 107.171 116.301 106.42 117.302 106.608C118.053 106.733 118.93 107.547 118.805 109.237C118.805 109.488 118.554 109.738 118.304 109.675C118.053 109.675 117.866 109.425 117.866 109.175C117.928 108.298 117.678 107.672 117.177 107.547C116.614 107.422 115.8 107.985 115.487 109.175C115.174 110.301 115.236 111.178 115.675 111.741C115.925 112.054 116.301 112.179 116.488 112.117C116.739 112.054 116.989 112.242 117.052 112.555C117.114 112.805 116.927 113.056 116.614 113.118C116.488 113.118 116.426 113.118 116.363 113.118Z" fill="#A6A6A6"/>
<path d="M122.373 113.118C121.81 113.118 121.246 112.868 120.871 112.367C120.495 111.929 119.869 110.865 120.495 108.924C121.058 107.171 122.31 106.42 123.312 106.608C124.063 106.733 124.94 107.547 124.814 109.237C124.814 109.488 124.564 109.738 124.314 109.675C124.063 109.675 123.875 109.425 123.875 109.175C123.938 108.298 123.688 107.672 123.187 107.547C122.623 107.422 121.81 107.985 121.497 109.175C121.184 110.301 121.246 111.178 121.684 111.741C121.935 112.054 122.31 112.179 122.498 112.117C122.749 112.054 122.999 112.242 123.062 112.555C123.124 112.805 122.936 113.056 122.623 113.118C122.498 113.118 122.436 113.118 122.373 113.118Z" fill="#A6A6A6"/>
<path d="M128.383 113.118C127.819 113.118 127.256 112.868 126.88 112.367C126.505 111.929 125.879 110.865 126.505 108.924C127.068 107.171 128.32 106.42 129.322 106.608C130.073 106.733 130.949 107.547 130.824 109.237C130.824 109.488 130.574 109.738 130.323 109.675C130.073 109.675 129.885 109.425 129.885 109.175C129.948 108.298 129.697 107.672 129.196 107.547C128.633 107.422 127.819 107.985 127.506 109.175C127.193 110.301 127.256 111.178 127.694 111.741C127.944 112.054 128.32 112.179 128.508 112.117C128.758 112.054 129.009 112.242 129.071 112.555C129.134 112.805 128.946 113.056 128.633 113.118C128.508 113.118 128.445 113.118 128.383 113.118Z" fill="#A6A6A6"/>
<path d="M134.392 113.118C133.829 113.118 133.265 112.868 132.89 112.367C132.514 111.929 131.888 110.865 132.514 108.924C133.077 107.171 134.329 106.42 135.331 106.608C136.082 106.733 136.959 107.547 136.833 109.237C136.833 109.488 136.583 109.738 136.333 109.675C136.082 109.675 135.894 109.425 135.894 109.175C135.957 108.298 135.707 107.672 135.206 107.547C134.642 107.422 133.829 107.985 133.516 109.175C133.203 110.301 133.265 111.178 133.703 111.741C133.954 112.054 134.329 112.179 134.517 112.117C134.768 112.054 135.018 112.242 135.081 112.555C135.143 112.805 134.955 113.056 134.642 113.118C134.517 113.118 134.455 113.118 134.392 113.118Z" fill="#A6A6A6"/>
<path d="M140.402 113.118C139.838 113.118 139.275 112.868 138.899 112.367C138.524 111.929 137.898 110.865 138.524 108.924C139.087 107.171 140.339 106.42 141.341 106.608C142.092 106.733 142.968 107.547 142.843 109.237C142.843 109.488 142.593 109.738 142.342 109.675C142.092 109.675 141.904 109.425 141.904 109.175C141.967 108.298 141.716 107.672 141.216 107.547C140.652 107.422 139.838 107.985 139.525 109.175C139.212 110.301 139.275 111.178 139.713 111.741C139.964 112.054 140.339 112.179 140.527 112.117C140.777 112.054 141.028 112.242 141.09 112.555C141.153 112.805 140.965 113.056 140.652 113.118C140.527 113.118 140.464 113.118 140.402 113.118Z" fill="#A6A6A6"/>
<path d="M146.411 113.118C145.848 113.118 145.284 112.868 144.909 112.367C144.533 111.929 143.907 110.865 144.533 108.924C145.097 107.171 146.349 106.42 147.35 106.608C148.101 106.733 148.978 107.547 148.853 109.237C148.853 109.488 148.602 109.738 148.352 109.675C148.101 109.675 147.914 109.425 147.914 109.175C147.976 108.298 147.726 107.672 147.225 107.547C146.662 107.422 145.848 107.985 145.535 109.175C145.222 110.301 145.284 111.178 145.723 111.741C145.973 112.054 146.349 112.179 146.536 112.117C146.787 112.054 147.037 112.242 147.1 112.555C147.162 112.805 146.975 113.056 146.662 113.118C146.536 113.118 146.474 113.118 146.411 113.118Z" fill="#A6A6A6"/>
<path d="M152.421 113.118C151.857 113.118 151.294 112.868 150.918 112.367C150.543 111.929 149.917 110.865 150.543 108.924C151.106 107.171 152.358 106.42 153.36 106.608C154.111 106.733 154.987 107.547 154.862 109.237C154.862 109.488 154.612 109.738 154.361 109.675C154.111 109.675 153.923 109.425 153.923 109.175C153.986 108.298 153.735 107.672 153.235 107.547C152.671 107.422 151.857 107.985 151.544 109.175C151.231 110.301 151.294 111.178 151.732 111.741C151.983 112.054 152.358 112.179 152.546 112.117C152.796 112.054 153.047 112.242 153.109 112.555C153.172 112.805 152.984 113.056 152.671 113.118C152.609 113.118 152.483 113.118 152.421 113.118Z" fill="#A6A6A6"/>
<path d="M158.431 113.118C157.867 113.118 157.304 112.868 156.928 112.367C156.553 111.929 155.927 110.865 156.553 108.924C157.116 107.171 158.368 106.42 159.37 106.608C160.121 106.733 160.997 107.547 160.872 109.237C160.872 109.488 160.622 109.738 160.371 109.675C160.121 109.675 159.933 109.425 159.933 109.175C159.996 108.298 159.745 107.672 159.244 107.547C158.681 107.422 157.867 107.985 157.554 109.175C157.241 110.301 157.304 111.178 157.742 111.741C157.992 112.054 158.368 112.179 158.556 112.117C158.806 112.054 159.057 112.242 159.119 112.555C159.182 112.805 158.994 113.056 158.681 113.118C158.618 113.118 158.493 113.118 158.431 113.118Z" fill="#A6A6A6"/>
<path d="M164.44 113.118C163.877 113.118 163.313 112.868 162.938 112.367C162.562 111.929 161.936 110.865 162.562 108.924C163.125 107.171 164.377 106.42 165.379 106.608C166.13 106.733 167.007 107.547 166.881 109.237C166.881 109.488 166.631 109.738 166.381 109.675C166.13 109.675 165.942 109.425 165.942 109.175C166.005 108.298 165.755 107.672 165.254 107.547C164.69 107.422 163.877 107.985 163.564 109.175C163.251 110.301 163.313 111.178 163.751 111.741C164.002 112.054 164.377 112.179 164.565 112.117C164.816 112.054 165.066 112.242 165.129 112.555C165.191 112.805 165.003 113.056 164.69 113.118C164.628 113.118 164.565 113.118 164.44 113.118Z" fill="#A6A6A6"/>
<path d="M170.512 113.118C169.949 113.118 169.385 112.868 169.01 112.367C168.634 111.929 168.008 110.865 168.634 108.924C169.198 107.171 170.45 106.42 171.451 106.608C172.202 106.733 173.079 107.547 172.954 109.237C172.954 109.488 172.703 109.738 172.453 109.675C172.202 109.675 172.015 109.425 172.015 109.175C172.077 108.298 171.827 107.672 171.326 107.547C170.763 107.422 169.949 107.985 169.636 109.175C169.323 110.301 169.385 111.178 169.824 111.741C170.074 112.054 170.45 112.179 170.637 112.117C170.888 112.054 171.138 112.242 171.201 112.555C171.263 112.805 171.076 113.056 170.763 113.118C170.637 113.118 170.575 113.118 170.512 113.118Z" fill="#A6A6A6"/>
<path d="M176.522 113.118C175.958 113.118 175.395 112.868 175.019 112.367C174.644 111.929 174.018 110.865 174.644 108.924C175.207 107.171 176.459 106.42 177.461 106.608C178.212 106.733 179.088 107.547 178.963 109.237C178.963 109.488 178.713 109.738 178.462 109.675C178.212 109.675 178.024 109.425 178.024 109.175C178.087 108.298 177.836 107.672 177.336 107.547C176.772 107.422 175.958 107.985 175.645 109.175C175.332 110.301 175.395 111.178 175.833 111.741C176.084 112.054 176.459 112.179 176.647 112.117C176.897 112.054 177.148 112.242 177.21 112.555C177.273 112.805 177.085 113.056 176.772 113.118C176.647 113.118 176.584 113.118 176.522 113.118Z" fill="#A6A6A6"/>
<path d="M182.531 113.118C181.968 113.118 181.405 112.868 181.029 112.367C180.653 111.929 180.027 110.865 180.653 108.924C181.217 107.171 182.469 106.42 183.47 106.608C184.222 106.733 185.098 107.547 184.973 109.237C184.973 109.488 184.722 109.738 184.472 109.675C184.222 109.675 184.034 109.425 184.034 109.175C184.096 108.298 183.846 107.672 183.345 107.547C182.782 107.422 181.968 107.985 181.655 109.175C181.342 110.301 181.405 111.178 181.843 111.741C182.093 112.054 182.469 112.179 182.657 112.117C182.907 112.054 183.157 112.242 183.22 112.555C183.283 112.805 183.095 113.056 182.782 113.118C182.657 113.118 182.594 113.118 182.531 113.118Z" fill="#A6A6A6"/>
<path d="M188.541 113.118C187.978 113.118 187.414 112.868 187.039 112.367C186.663 111.929 186.037 110.865 186.663 108.924C187.226 107.171 188.478 106.42 189.48 106.608C190.231 106.733 191.108 107.547 190.982 109.237C190.982 109.488 190.732 109.738 190.482 109.675C190.231 109.675 190.043 109.425 190.043 109.175C190.106 108.298 189.856 107.672 189.355 107.547C188.791 107.422 187.978 107.985 187.665 109.175C187.352 110.301 187.414 111.178 187.852 111.741C188.103 112.054 188.478 112.179 188.666 112.117C188.917 112.054 189.167 112.242 189.23 112.555C189.292 112.805 189.104 113.056 188.791 113.118C188.666 113.118 188.604 113.118 188.541 113.118Z" fill="#A6A6A6"/>
<path d="M136.458 23.0995C137.146 24.4141 137.522 25.8539 137.647 27.2937C137.647 27.4189 137.647 27.5441 137.522 27.6067C137.397 27.6693 137.334 27.7319 137.209 27.6693C137.084 27.6067 137.021 27.4815 137.021 27.3563C136.959 26.9181 136.959 26.5425 136.833 26.1043C136.395 23.6629 135.206 21.6597 133.39 20.0321C133.265 19.9069 133.203 19.8443 133.265 19.6565C133.265 19.5313 133.39 19.4687 133.516 19.4061C133.641 19.3435 133.766 19.4061 133.829 19.4687C134.455 19.9695 135.018 20.5955 135.519 21.2215C135.769 21.9101 136.145 22.4735 136.458 23.0995Z" fill="#0678CE"/>
<path d="M134.893 23.8507C135.331 24.7271 135.581 25.6035 135.644 26.6051C135.644 26.7303 135.644 26.8555 135.519 26.9181C135.268 27.0433 135.018 26.9181 135.018 26.6677C134.955 26.2921 134.893 25.8539 134.83 25.4783C134.517 24.1637 133.829 23.0369 132.764 22.1605C132.514 21.9727 132.577 21.6597 132.827 21.5971C132.952 21.5345 133.077 21.5971 133.203 21.6597C133.641 22.0353 134.016 22.4109 134.329 22.9117C134.455 23.1621 134.705 23.5377 134.893 23.8507Z" fill="#0678CE"/>
<path d="M100.964 21.6598C101.84 20.4704 102.967 19.4688 104.219 18.7176C104.344 18.655 104.469 18.5924 104.532 18.655C104.657 18.7176 104.72 18.7802 104.72 18.9054C104.72 19.0306 104.657 19.1558 104.532 19.2184C104.219 19.4688 103.843 19.6566 103.53 19.907C101.59 21.4094 100.275 23.35 99.7116 25.7288C99.649 25.854 99.5864 25.9792 99.4612 26.0418C99.336 26.1044 99.2108 26.0418 99.1482 25.9792C99.023 25.854 99.023 25.7914 99.0856 25.6662C99.2734 24.8524 99.5864 24.1012 99.8994 23.4126C100.212 22.7866 100.588 22.1606 100.964 21.6598Z" fill="#0678CE"/>
<path d="M102.403 22.6614C103.029 21.9101 103.718 21.2841 104.532 20.7833C104.657 20.7207 104.782 20.6582 104.907 20.7208C105.158 20.846 105.158 21.159 104.907 21.2842C104.594 21.5346 104.219 21.7223 103.906 22.0353C102.904 22.9118 102.216 24.0386 101.84 25.3532C101.777 25.6662 101.527 25.7913 101.277 25.6035C101.151 25.4783 101.151 25.4158 101.214 25.228C101.339 24.6646 101.527 24.1638 101.84 23.663C101.965 23.35 102.153 23.037 102.403 22.6614Z" fill="#0678CE"/>
</svg>
