<svg id="Layer_1" data-name="Layer 1" xmlns="http://www.w3.org/2000/svg" viewBox="0 0 1200 1200"><defs><style>.cls-1{fill:#f0f2fd;}.cls-2{fill:#4e40b2;}.cls-3{fill:#fff;}.cls-4{fill:#7a7aed;}.cls-5{fill:#3f1b96;}.cls-6{fill:#ffce55;}.cls-7,.cls-8{fill:none;stroke:#fff;stroke-linecap:round;stroke-linejoin:round;}.cls-7{stroke-width:3px;}.cls-8{stroke-width:5px;}</style></defs><path class="cls-1" d="M19.39,789c-50.48-214.78,77.13-453.72,278.28-586.1s475.86-159,641.57-30.18c165.75,128,223.33,410.69,136.5,638C989.71,1038.07,758.46,1210,528.13,1201,298.59,1192,69.92,1003,19.39,789Z"/><rect class="cls-2" x="263.94" y="709.49" width="555.15" height="376.4" rx="12"/><rect class="cls-3" x="288.73" y="732.19" width="505.55" height="331.01" rx="9.02"/><rect class="cls-2" x="695.68" y="879.53" width="418.36" height="283.65" rx="12"/><rect class="cls-3" x="714.37" y="896.63" width="380.98" height="249.45" rx="9.02"/><rect class="cls-4" x="480.54" y="1086.02" width="105.43" height="60.24"/><rect class="cls-5" x="480.54" y="1086.02" width="105.43" height="20.08"/><polygon class="cls-5" points="391.18 1168.2 410.91 1146.26 648.99 1146.26 664.15 1168.2 391.18 1168.2"/><rect class="cls-4" x="390.97" y="1168.2" width="273.61" height="15.06"/><path class="cls-5" d="M679.63,1163.18h446.81a0,0,0,0,1,0,0v10.57a7,7,0,0,1-7,7H686.63a7,7,0,0,1-7-7v-10.57A0,0,0,0,1,679.63,1163.18Z"/><rect class="cls-2" x="90.42" y="958.47" width="272.05" height="184.45" rx="7.6" transform="translate(1277.14 824.25) rotate(90)"/><rect class="cls-3" x="102.57" y="969.59" width="247.74" height="162.21" rx="4.61" transform="translate(1277.14 824.25) rotate(90)"/><rect class="cls-2" x="305.62" y="1065.28" width="136.5" height="81.04" rx="5.99" transform="translate(1479.67 731.92) rotate(90)"/><rect class="cls-3" x="315.79" y="1072.49" width="116.17" height="66.6" rx="3" transform="translate(1479.67 731.92) rotate(90)"/><rect class="cls-6" x="9" y="746.72" width="221.26" height="44.7" rx="3.22"/><circle class="cls-3" cx="28.69" cy="767.57" r="8.81"/><path class="cls-6" d="M211.94,788.81l18.45,14.48a1,1,0,0,0,1.55-1l-2.22-18.06Z"/><line class="cls-7" x1="48.75" y1="761.02" x2="204.33" y2="761.02"/><line class="cls-7" x1="48.75" y1="768" x2="171.27" y2="768"/><line class="cls-7" x1="48.75" y1="774.98" x2="132.02" y2="774.98"/><rect class="cls-6" x="447.72" y="561.3" width="456.64" height="92.26" rx="11.82"/><circle class="cls-3" cx="488.35" cy="604.33" r="18.18"/><path class="cls-6" d="M484.34,648.17l-38.09,29.9a2,2,0,0,1-3.18-2.07l4.58-37.28Z"/><line class="cls-8" x1="529.76" y1="590.83" x2="850.86" y2="590.83"/><line class="cls-8" x1="529.76" y1="605.23" x2="782.63" y2="605.23"/><line class="cls-8" x1="529.76" y1="619.63" x2="701.62" y2="619.63"/><rect class="cls-6" x="843.77" y="815" width="171.44" height="34.64" rx="3.92"/><circle class="cls-3" cx="859.03" cy="831.15" r="6.83"/><path class="cls-6" d="M857.52,847.61l-14.3,11.23a.76.76,0,0,1-1.2-.78l1.73-14Z"/><line class="cls-7" x1="874.57" y1="826.08" x2="995.12" y2="826.08"/><line class="cls-7" x1="874.57" y1="831.49" x2="969.51" y2="831.49"/><line class="cls-7" x1="874.57" y1="836.9" x2="939.09" y2="836.9"/></svg>