<svg id="Layer_1" data-name="Layer 1" xmlns="http://www.w3.org/2000/svg" viewBox="0 0 1200 1200"><defs><style>.cls-1{fill:#f0f2fd;}.cls-2{fill:#a1b3d3;}.cls-3{fill:#fff;}.cls-4{fill:#ffce55;}.cls-5{fill:#fca74a;}.cls-13,.cls-6{fill:none;}.cls-12,.cls-13,.cls-6{stroke:#4e40b2;stroke-linecap:round;stroke-linejoin:round;}.cls-6{stroke-width:4px;stroke-dasharray:20 20 20 20 20 20;}.cls-12,.cls-7{fill:#e4c2a3;}.cls-8{fill:#003390;}.cls-9{fill:#6c6f88;}.cls-10{fill:#0044bd;}.cls-11{fill:#4a312c;}.cls-12,.cls-13{stroke-width:7px;}</style></defs><path class="cls-1" d="M43.29,470.48C104.46,258.49,332.75,112.66,573,95.76s492.76,94.44,574.14,287.9c81.82,192.79-6.42,467.45-193.44,623.09-186.35,156.07-472.15,192.68-668.57,72C89.34,958.58-17.46,681.79,43.29,470.48Z"/><path class="cls-2" d="M287.81,506.41q.78,60.3,1.55,120.61c.34,27.14-10.95,38.66-38.22,39q-44.43.59-88.85,1.12c-25.2.28-37.22-11.26-37.57-36.42q-1.69-122.6-3.15-245.2a62.7,62.7,0,0,1,.52-9.49c2.64-18.6,13-28.48,31.75-28.93q49.56-1.19,99.15-1.28c20.8,0,32.42,12.2,33.06,34.41.7,24.06.74,48.14,1.06,72.21Q287.47,479.42,287.81,506.41Zm-9.19,117.33-3-236.27L132.46,389.3l3,236.28Zm-71.34,34.69a12.51,12.51,0,0,0,12.08-12.2,12.11,12.11,0,0,0-24.22,0A12.55,12.55,0,0,0,207.28,658.43Zm15.34-289.19c-7.55-4.05-33.22-3-37.25,1.2C191.15,374.41,217.05,373.89,222.62,369.24Z"/><path class="cls-3" d="M278.62,623.74l-143.13,1.84-3-236.28,143.13-1.83Z"/><path class="cls-3" d="M207.28,658.43a12.55,12.55,0,0,1-12.14-12.15,12.11,12.11,0,0,1,24.22,0A12.51,12.51,0,0,1,207.28,658.43Z"/><path class="cls-3" d="M222.62,369.24c-5.57,4.65-31.47,5.17-37.25,1.2C189.4,366.25,215.07,365.19,222.62,369.24Z"/><g id="aYFtF6.tif"><path class="cls-4" d="M998.31,462.11h6c6.79,2.24,11.46,6.25,11.53,13.8.24.23.3.33.38.35.39.1.78.17,1.17.24,26.52,4.81,44.7,19.52,53.54,45.23,4.25,12.36,5.09,25.22,5.57,38.19.45,12.29,1.09,24.63,2.53,36.84,2.31,19.58,10.9,36,26.83,48.1,2.69,2,5.24,4.27,7.83,6.44a21.37,21.37,0,0,1,1.57,1.7H886.94c3.68-3,6.78-5.75,10-8.26,14.86-11.42,23.12-26.6,26.25-44.93,2.42-14.18,2.57-28.47,3.16-42.77a151.12,151.12,0,0,1,3.47-28.32c5.62-23.88,19.65-40.89,43.3-49.06,4.47-1.54,9.15-2.47,13.79-3.71.18-3.77,1.14-7.39,4.21-9.81C993.28,464.47,995.91,463.43,998.31,462.11Z"/><path class="cls-5" d="M997.12,691.34c-2.54-.78-5.17-1.35-7.61-2.37-9.13-3.78-15.48-10.21-18.25-19.87-.29-1-.39-2.09-.62-3.31h61.58c-1.09,7.53-4.78,13.39-10.38,18.18-4.74,4-10.41,6-16.36,7.37Z"/></g><path class="cls-6" d="M1010.86,728c-56.41,181.35-225.57,313-425.48,313-206.53,0-380.23-140.54-430.7-331.2"/><path class="cls-6" d="M237.6,317.06C319.24,215.21,444.7,150,585.38,150c184.54,0,342.86,112.19,410.49,272.09"/><path class="cls-7" d="M180,735.43s-10.9-9.81-14.17-25.06-4.36-59.93-10.9-71.92-5.44-24,6.54-20.7,27.24,22.88,27.24,31.6,2.18,29.42,4.36,31.6l2.18,2.18s6.54-33.78,7.63-43.59,12-78.45,12-83.9,1.09-30.51,14.17-33.78,10.89,26.15,10.89,32.69-.81,56.59.14,66.43c0,0-1.23-13,10.76-9.77s14.16,15.26,14.16,15.26,5.45-7.63,12-1.09,17.14,21.13,17.29,23.09,6.68,11.77,12.13,16.13,14.16,12,14.16,16.35-1.09,28.33-3.26,40.31-1.09,26.15-9.81,39.23c-1.09,10.89,1.09,20.7,2.18,27.24S312.89,818.24,314,828s5.44,44.68,5.44,44.68l5.45,24s-51.21,4.36-90.43-9.81c0,0-12-99.15-19.62-105.69S182.13,745.23,180,735.43Z"/><polygon class="cls-8" points="630 570 548.23 569.51 646.89 935.44 680.22 935.44 630 570"/><path class="cls-9" d="M427.42,935.44v37.21h17.72v-4l26.13,4h70V966s-65.1-18.19-70.06-30.59Z"/><path class="cls-9" d="M642,935.44v37.21h17.72v-4l26.14,4h70V966s-65.11-18.19-70.07-30.59Z"/><polygon class="cls-10" points="508.06 569.5 559.98 569.5 616.69 569.5 572.44 715.81 469.23 935.15 429.62 935.15 501.83 724.17 508.06 569.5"/><path class="cls-7" d="M496.13,614l2.31,16.43a2.07,2.07,0,0,1-1.39,2.25h0a2.06,2.06,0,0,1-2.66-1.48l-2.59-10.86s-5.86,10.48-1.93,16.85.09,9.58-4.56,7.86-19.62-7.58-7.17-36.87Z"/><path class="cls-7" d="M533.58,299.8l-5.22,23.09,32.78,3v-9.95s21.6,14.42,31.29,12.93,29.79-33.52,8.93-88.65c0,0-19.36,3-29.79,1.49L557.42,264s-9.27-5.42-15.65,5.22c-6.7,11.17,2.24,16.38,2.24,16.38Z"/><path class="cls-11" d="M533.58,299.8S506,283.41,519.43,243.18s48.41-32,63.31-32,31.29,5.22,35-4.47c0,0,8.94,43.95-46.18,35L557.42,264s-8.94-5.21-15.65,5.22S544,285.64,544,285.64Z"/><path class="cls-5" d="M722.74,448.85l-76.4,56.55a14.59,14.59,0,0,1-20.18-2.74l-66.34-84.91L598.35,358l49.44,99.25a1.22,1.22,0,0,0,1.66.55l67.39-35.06Z"/><path class="cls-4" d="M546.25,326.39V327s-72.56-.63-48.84,110.33C520.22,544,488,575.48,488,575.48s89.85,20.17,147.2,2c0,0,.53-20.38-34.38-215.15C589.74,341.66,570,329.88,546.25,326.39Z"/><path class="cls-5" d="M549.18,373.42s-10.65,149.13-35.3,206l-5.44-1.09S550.51,421.68,549.18,373.42Z"/><path class="cls-4" d="M529.6,341.69h0c-16-11.2-25.52,8.88-32.34,31.83L473.39,614.39l24.13,1.15s47.75-146.08,52.72-231.1A48.62,48.62,0,0,0,529.6,341.69Z"/><path class="cls-5" d="M520.71,322.24V338.5l56.47,8.32a2.06,2.06,0,0,0,2.28-2.62l-5-17a5.11,5.11,0,0,0-4.19-3.62l-44-6.15A4.89,4.89,0,0,0,520.71,322.24Z"/><polygon class="cls-7" points="716.84 422.76 721.81 417.27 732.35 430.14 720.6 439.36 716.84 422.76"/><rect class="cls-9" x="730.27" y="391.36" width="28.77" height="49.62" rx="0.89" transform="translate(894.41 1255.97) rotate(-129.31)"/><rect class="cls-3" x="732.89" y="394.79" width="23.52" height="42.77" rx="0.58" transform="translate(894.4 1255.97) rotate(-129.31)"/><path class="cls-7" d="M763.14,420.59c-.43-2.63-4.35-8.39-7.89-5.14s-8.07,5-7.59,11.63a17.57,17.57,0,0,1-.73,6.31s3.8-.47,5-.78C756.69,431.44,763.92,425.39,763.14,420.59Z"/><path class="cls-7" d="M730.58,407.58s5.47-2.05,5.91.24-1.93,4.33-5,4-3.75.16-3.75.16l-6.29,5.15S719.41,406.44,730.58,407.58Z"/><line class="cls-12" x1="231.52" y1="512.38" x2="233" y2="495"/><line class="cls-12" x1="248" y1="524.05" x2="262.48" y2="520.21"/><line class="cls-12" x1="249.36" y1="540.62" x2="260.38" y2="548.98"/><line class="cls-12" x1="213.39" y1="518.44" x2="199.29" y2="509.78"/><line class="cls-12" x1="208.22" y1="535.93" x2="194.48" y2="539.65"/><path class="cls-13" d="M1087,486.53s19.55,15,20.55,50"/><path class="cls-13" d="M1080,502.53s12.42,9.5,13,31.73"/><path class="cls-13" d="M920.5,486.53s-19.55,15-20.55,50"/><path class="cls-13" d="M927.5,502.53s-12.41,9.5-13,31.73"/></svg>