<svg id="Layer_1" data-name="Layer 1" xmlns="http://www.w3.org/2000/svg" viewBox="0 0 1200 1200"><defs><style>.cls-1{fill:#f0f2fd;}.cls-2{fill:#ffce55;}.cls-3{fill:#fff;}.cls-4{fill:#b1b8ff;}.cls-5{fill:#7a7aed;}.cls-6{fill:#3f1b96;}.cls-7{fill:#fca74a;}.cls-8{fill:#4a312c;}.cls-9{fill:#e4c2a3;}.cls-10{fill:#003390;}.cls-11{fill:#0044bd;}.cls-12{fill:#63b8b3;}.cls-13{fill:#7cd1c9;}.cls-14{fill:#6c6f88;}.cls-15{fill:#cbcde0;}.cls-16{fill:none;stroke:#fff;stroke-linecap:round;stroke-linejoin:round;stroke-width:3px;}</style></defs><path class="cls-1" d="M1193.69,649.12c0,269.3-292.75,542.75-589.14,542.75-297.3,0-598.24-273.45-598.24-542.75C6.31,379,307.25,113,604.55,113,900.94,113,1193.69,379,1193.69,649.12Z"/><rect class="cls-2" x="213.96" y="432" width="253.66" height="51.25" rx="11.82"/><circle class="cls-3" cx="236.53" cy="455.9" r="10.1"/><polygon class="cls-4" points="365.99 1102.99 470.3 944.75 596.54 961.33 608.93 1163.39 365.99 1102.99"/><polygon class="cls-4" points="734.98 944.75 959.74 969.66 1144 1159.59 857.96 1102.99 734.98 944.75"/><polygon class="cls-5" points="74 1158.05 365.99 1102.99 470.3 944.75 312.5 960.46 74 1158.05"/><polyline class="cls-5" points="608.93 1163.39 857.96 1102.99 734.98 944.75 596.54 961.33"/><g id="KQwqbJ.tif"><path class="cls-6" d="M573.7,827.66c-.11,2.9-.13,6.11-.4,9.3-.3,3.51-.8,7-1.28,10.49-.31,2.31-.68,4.61-1.14,6.9-.52,2.53-1.15,5-1.75,7.55-.37,1.52-.75,3-1.16,4.54-.37,1.32-.76,2.64-1.17,3.95-.57,1.8-1.14,3.59-1.76,5.38-.55,1.62-1.16,3.24-1.76,4.85-.53,1.41-1.08,2.82-1.64,4.22s-1.12,2.81-1.72,4.2c-.74,1.71-1.48,3.41-2.27,5.1s-1.73,3.66-2.63,5.46c-1,2.08-2.11,4.15-3.21,6.19q-1.81,3.35-3.73,6.63c-1.32,2.27-2.67,4.53-4.07,6.75-1.67,2.66-3.34,5.33-5.13,7.91q-4,5.77-8.16,11.43c-4.59,6.2-9.5,12.15-14.58,18a300.23,300.23,0,0,1-22.2,23.06c-5.21,4.84-10.6,9.49-15.94,14.18-1.71,1.51-3.5,2.93-5.3,4.34a8.71,8.71,0,0,1-6.12,1.69,10.61,10.61,0,0,1-5.87-2.69,243,243,0,0,1-18.64-16.18c-6.33-6-12.5-12.16-18.29-18.69-4.19-4.72-8.32-9.5-12.34-14.38-3.12-3.79-6.11-7.7-9-11.65-2.49-3.37-4.84-6.84-7.18-10.32q-2.89-4.3-5.62-8.75c-1.62-2.65-3.16-5.37-4.68-8.09-1.43-2.56-2.83-5.13-4.17-7.74-1.11-2.15-2.13-4.34-3.16-6.53-.94-2-1.88-4-2.74-6s-1.78-4.35-2.63-6.54c-.79-2-1.56-4-2.28-6.07-.59-1.69-1.12-3.41-1.65-5.12q-.9-2.9-1.74-5.82-.63-2.25-1.17-4.53-.69-2.85-1.3-5.72c-.23-1-.47-2.1-.62-3.16-.59-4.23-1.24-8.45-1.69-12.69a97.43,97.43,0,0,1-.53-15.18c.11-2.27.11-4.54.35-6.79.3-2.87.76-5.74,1.22-8.59.32-2,.69-4,1.16-6,.51-2.15,1.13-4.27,1.76-6.4q.76-2.64,1.66-5.25c.49-1.4,1.06-2.78,1.63-4.15.73-1.74,1.46-3.48,2.28-5.18.94-2,1.91-3.94,3-5.84,1.3-2.28,2.63-4.56,4.1-6.73q2.92-4.31,6.1-8.42a91.55,91.55,0,0,1,11.92-12.66c2.54-2.26,5.18-4.42,7.89-6.46a86.45,86.45,0,0,1,11.07-7.16c2-1.1,4-2.24,6.09-3.23s4.09-1.8,6.15-2.66c1.46-.61,2.92-1.21,4.41-1.73,1.78-.62,3.59-1.15,5.39-1.7,1.34-.4,2.68-.79,4-1.13,1.76-.44,3.52-.9,5.31-1.22,2.87-.51,5.75-1,8.64-1.33,2.36-.3,4.74-.52,7.12-.59,3.26-.1,6.55-.19,9.8,0,3.93.25,7.85.76,11.76,1.25,2.1.27,4.19.67,6.26,1.14,2.24.5,4.46,1.13,6.68,1.76,1.81.51,3.62,1.06,5.4,1.67,1.52.51,3,1.11,4.49,1.72s3.26,1.36,4.87,2.11c1.87.87,3.76,1.72,5.56,2.74,2.95,1.66,5.91,3.34,8.73,5.22s5.61,4,8.31,6.14a98.37,98.37,0,0,1,12.2,11.6,102.7,102.7,0,0,1,9,11.51c1.65,2.48,3.18,5,4.64,7.63,1.33,2.35,2.58,4.75,3.7,7.19s2.23,5.07,3.16,7.68c1.09,3.08,2.11,6.21,3,9.37.8,3,1.37,6,2,9.07C573.31,814.71,573.53,821,573.7,827.66Zm-106.29,42a42.93,42.93,0,1,0-43-42.93A42.71,42.71,0,0,0,467.41,869.7Z"/></g><path class="cls-7" d="M520.27,586.17l70.17,51.93A13.4,13.4,0,0,0,609,635.58l60.92-78-36.08-55.72-44.71,92a1.11,1.11,0,0,1-1.52.5l-61.89-32.2Z"/><path class="cls-8" d="M720.72,472.78,611.9,504s-43.7-128,9.77-146.26S678.33,370,686.47,376c11.36,8.35,18.71,1.77,30.78,17.3,12.76,16.43,7,21.81,13.16,31.19s25.25,22,20.28,39.7Z"/><path class="cls-9" d="M682.43,463.44s-19.14-31.62-20.38-38.2c0,0,16.3-5.45,7.23-20.06s-19.08.29-19.08.29-41.46-.77-49.11-16.11c0,0-8.81,56.44,24.46,85.21,7.68,3,31.41-11.62,28.31-27l6.85,28.4Z"/><path class="cls-10" d="M631.81,758.4s63.9,271.76,104,326.07h28.58S725.5,766.14,734.28,706Z"/><polygon class="cls-11" points="608.9 698.93 594.46 1084.13 629.12 1084.47 712.82 698.93 608.9 698.93"/><path class="cls-2" d="M683.89,459.38h0s38.62,29.85,43.89,129.92,8.62,126.86,8.62,126.86S653.89,734.68,601.22,718c0,0-29-18.28,25.95-197.37C633.64,499.56,662.06,462.59,683.89,459.38Z"/><path class="cls-2" d="M669.46,489.69h0a23,23,0,0,1,39.73,5.63l85.07,217.54-20.8,7.7S691.15,605.9,663.24,532.85A44.66,44.66,0,0,1,669.46,489.69Z"/><path class="cls-7" d="M660.27,522.16S695.45,630,732.79,672.91V660.3S672.49,564.78,660.27,522.16Z"/><path class="cls-12" d="M961.06,1004.89,804.47,742.13a1.8,1.8,0,0,0-2.55-.58h0a1.81,1.81,0,0,0-.55,2.42L956.12,1004.6"/><path class="cls-9" d="M791.37,712.91l1.39,5.76s20.44,16.76,20.33,19.71-.19,4-4.84,2.27-8.61-5.66-7.55,5.83.75,18-3,12.67S788.24,743,787.32,738s-3.17-17.49-6.75-20Z"/><rect class="cls-13" x="922.94" y="827.34" width="115.55" height="225.87" rx="4.09" transform="translate(-347.07 652.34) rotate(-31.56)"/><rect class="cls-12" x="925.17" y="835.24" width="110.06" height="218.89" rx="3.23" transform="translate(-349.45 652.73) rotate(-31.56)"/><rect class="cls-13" x="914.35" y="874.26" width="60.6" height="14.59" rx="0.92" transform="translate(-314.22 590.43) rotate(-30)"/><rect class="cls-13" x="948.81" y="933.96" width="60.6" height="14.59" rx="0.92" transform="translate(-339.45 615.66) rotate(-30)"/><rect class="cls-13" x="985.39" y="997.3" width="60.6" height="14.59" rx="0.92" transform="translate(-366.22 642.43) rotate(-30)"/><circle class="cls-14" cx="1012.88" cy="1063.98" r="9.04"/><circle class="cls-14" cx="1035.98" cy="1050.05" r="9.04"/><circle class="cls-15" cx="1012.88" cy="1063.98" r="4.47"/><circle class="cls-15" cx="1035.98" cy="1050.05" r="4.47"/><polygon class="cls-9" points="609 1084.47 609 1094.2 627.29 1094.2 629.12 1084.47 609 1084.47"/><polygon class="cls-9" points="744.26 1084.47 744.26 1094.2 762.55 1094.2 760.93 1084.47 744.26 1084.47"/><polygon class="cls-14" points="609 1094.2 559.42 1104.11 559.42 1111.78 629.12 1111.78 627.29 1094.2 609 1094.2"/><polygon class="cls-14" points="744.26 1094.2 701.46 1102.99 701.46 1111.78 764.38 1111.78 762.55 1094.2 744.26 1094.2"/><rect class="cls-14" x="489.23" y="535.64" width="26.42" height="45.57" rx="0.89" transform="translate(-247.93 593.4) rotate(-50.69)"/><path class="cls-9" d="M521.26,581.81s-2.63-3.49-5-4.33l8.22-10Z"/><rect class="cls-3" x="491.64" y="538.79" width="21.6" height="39.27" rx="0.58" transform="translate(-247.93 593.4) rotate(-50.69)"/><path class="cls-9" d="M485.46,562.48c.39-2.41,4-7.7,7.25-4.71s7.4,4.57,7,10.68a16.25,16.25,0,0,0,.68,5.79s-3.5-.43-4.63-.72C491.38,572.45,484.74,566.89,485.46,562.48Z"/><path class="cls-9" d="M515.36,550.54s-5-1.89-5.43.22,1.77,4,4.63,3.64,3.45.15,3.45.15l5.77,4.73S525.62,549.49,515.36,550.54Z"/><path class="cls-2" d="M446.62,480.25l21.16,16.61a1.12,1.12,0,0,0,1.77-1.15L467,475Z"/><line class="cls-16" x1="259.54" y1="448.4" x2="437.9" y2="448.4"/><line class="cls-16" x1="259.54" y1="456.4" x2="400" y2="456.4"/><line class="cls-16" x1="259.54" y1="464.4" x2="355" y2="464.4"/><ellipse class="cls-12" cx="802" cy="742.5" rx="5" ry="3.5" transform="translate(-263.8 500.48) rotate(-30)"/></svg>