<svg id="Layer_1" data-name="Layer 1" xmlns="http://www.w3.org/2000/svg" viewBox="0 0 1200 1200"><defs><style>.cls-1{fill:#f0f2fd;}.cls-2{fill:#3f1b96;}.cls-10,.cls-3{fill:#fff;}.cls-3{stroke:#a1b3d3;stroke-miterlimit:10;stroke-width:3px;}.cls-4{fill:#7a7aed;}.cls-5{fill:#6b7c93;}.cls-6{font-size:283.34px;fill:#4b44a8;font-family:ArialRoundedMTBold, Arial Rounded MT Bold;}.cls-7{fill:#fca74a;}.cls-8{fill:#ffce55;}.cls-9{fill:#f8cf60;}</style></defs><path class="cls-1" d="M1020,267.66c99.77,100.12,167.42,242.69,161.5,411.69-5.08,169-82.87,364.44-239.29,453.35-155.58,88.91-389,71.28-581.73-20C168.52,1022.17,16.32,858.77,10.4,701,3.64,544,142.31,391.81,274.21,285.28s257-169,385.57-172.21C788.3,110.67,920.2,167.54,1020,267.66Z"/><rect class="cls-2" x="253.38" y="545.15" width="755.68" height="601.99" rx="4.96"/><rect class="cls-3" x="267.54" y="530.65" width="755.68" height="601.99" rx="6.64"/><path class="cls-4" d="M274.57,521.91h742.8a5.86,5.86,0,0,1,5.86,5.86v94.35a0,0,0,0,1,0,0H267.54a0,0,0,0,1,0,0V528.93A7,7,0,0,1,274.57,521.91Z"/><ellipse class="cls-2" cx="379.62" cy="548.58" rx="25.38" ry="22.06"/><rect class="cls-5" x="362.48" y="473.19" width="33.75" height="88.8" rx="11.48"/><ellipse class="cls-2" cx="870.93" cy="544.25" rx="25.38" ry="22.06"/><rect class="cls-5" x="853.79" y="468.86" width="33.75" height="88.8" rx="11.48"/><path class="cls-5" d="M887.75,1003c-6.25,2.56-11.11,5-14.57,9.91a24,24,0,0,0-4.44,14.09c0,15.81,3.68,105.63,3.68,105.63l24.25-132.43Z"/><path class="cls-2" d="M1023.22,998.37,872.68,1132.64v-99.05a35.22,35.22,0,0,1,35.21-35.22Z"/><text class="cls-6" transform="translate(463.63 962.29)">04</text><rect class="cls-7" x="124.78" y="734.99" width="272.83" height="22.04" rx="6.12"/><rect class="cls-7" x="124.78" y="1105.53" width="272.83" height="22.04" rx="6.12"/><path class="cls-8" d="M367.89,757.5c0,98.44-47.57,178.24-106.25,178.24S155.39,855.94,155.39,757.5"/><path class="cls-8" d="M155.39,1106c0-98.43,47.57-178.23,106.25-178.23s106.25,79.8,106.25,178.23"/><path class="cls-7" d="M171.6,832.24s9,27,16.21,39.62,21.16,39.71,61,55.87c5.63,7.16,3.83,19.76,3.83,19.76s7.2-14.41,18-16.21,28.81-9,46.82-27c0,0-5.41-9-21.61-1.8s-39.62,10.81-48.63,0-3.6-19.81-25.21-19.81S171.6,832.24,171.6,832.24Z"/><path class="cls-7" d="M162.6,1102.36S195,1073.55,214.82,1070s37.22-7.83,40.82-17.36c0,0,15.84,16,28,16.68s26.59,20.49,41,24.09l34.33,9"/><circle class="cls-7" cx="255.64" cy="959.96" r="2.94"/><circle class="cls-7" cx="255.64" cy="984.95" r="2.94"/><circle class="cls-9" cx="230.64" cy="1034.94" r="2.94"/><circle class="cls-7" cx="255.64" cy="1029.06" r="2.94"/><path class="cls-10" d="M348.27,761.46h13.42s8.63,45.58-20.77,102.92C340.92,864.38,361.5,827.63,348.27,761.46Z"/><path class="cls-10" d="M346.77,1102.7l13.4-.76s6.05-46-26.55-101.58C333.62,1000.36,356.25,1035.89,346.77,1102.7Z"/></svg>