<svg id="Layer_1" data-name="Layer 1" xmlns="http://www.w3.org/2000/svg" viewBox="0 0 1200 1200"><defs><style>.cls-1{fill:#f0f2fd;}.cls-2{fill:#3f1b96;}.cls-3{fill:#fff;stroke:#a1b3d3;stroke-miterlimit:10;stroke-width:3px;}.cls-4{fill:#7a7aed;}.cls-5{fill:#6b7c93;}.cls-6{fill:#fca74a;}.cls-7{fill:#f8cf60;}.cls-8{fill:#4b44a8;}.cls-9{fill:#d9dbec;}</style></defs><path class="cls-1" d="M1147.59,983.5c-182,289.74-911.16,288.46-1094.46-1.28S233.77,113,599,113C964.3,114.28,1329.56,695,1147.59,983.5Z"/><rect class="cls-2" x="226.76" y="573.15" width="755.68" height="601.99" rx="4.96"/><rect class="cls-3" x="240.92" y="558.65" width="755.68" height="601.99" rx="6.64"/><path class="cls-4" d="M247.94,549.91h742.8a5.86,5.86,0,0,1,5.86,5.86v94.35a0,0,0,0,1,0,0H240.92a0,0,0,0,1,0,0V556.93A7,7,0,0,1,247.94,549.91Z"/><ellipse class="cls-2" cx="353" cy="576.58" rx="25.38" ry="22.06"/><rect class="cls-5" x="335.86" y="501.19" width="33.75" height="88.8" rx="11.48"/><ellipse class="cls-2" cx="844.31" cy="572.25" rx="25.38" ry="22.06"/><rect class="cls-5" x="827.17" y="496.86" width="33.75" height="88.8" rx="11.48"/><circle class="cls-6" cx="229.02" cy="987.96" r="2.94"/><circle class="cls-6" cx="229.02" cy="1012.95" r="2.94"/><circle class="cls-7" cx="204.02" cy="1062.94" r="2.94"/><circle class="cls-6" cx="229.02" cy="1057.06" r="2.94"/><rect class="cls-8" x="277.95" y="713" width="67.08" height="65.29" rx="1.18"/><rect class="cls-9" x="380.52" y="713" width="67.08" height="65.29" rx="1.18"/><rect class="cls-9" x="585.67" y="713" width="67.08" height="65.29" rx="1.18"/><rect class="cls-8" x="688.24" y="713" width="67.08" height="65.29" rx="1.18"/><rect class="cls-9" x="790.82" y="713" width="67.08" height="65.29" rx="1.18"/><rect class="cls-9" x="893.39" y="713" width="67.08" height="65.29" rx="1.18"/><rect class="cls-9" x="483.1" y="713" width="67.08" height="65.29" rx="1.18"/><rect class="cls-9" x="277.95" y="813.05" width="67.08" height="65.29" rx="1.18"/><rect class="cls-8" x="380.52" y="813.05" width="67.08" height="65.29" rx="1.18"/><rect class="cls-9" x="585.67" y="813.05" width="67.08" height="65.29" rx="1.18"/><rect class="cls-9" x="688.24" y="813.05" width="67.08" height="65.29" rx="1.18"/><rect class="cls-8" x="790.82" y="813.05" width="67.08" height="65.29" rx="1.18"/><rect class="cls-9" x="893.39" y="813.05" width="67.08" height="65.29" rx="1.18"/><rect class="cls-9" x="483.1" y="813.05" width="67.08" height="65.29" rx="1.18"/><rect class="cls-9" x="277.95" y="914.28" width="67.08" height="65.29" rx="1.18"/><rect class="cls-9" x="380.52" y="914.28" width="67.08" height="65.29" rx="1.18"/><rect class="cls-9" x="585.67" y="914.28" width="67.08" height="65.29" rx="1.18"/><rect class="cls-9" x="688.24" y="914.28" width="67.08" height="65.29" rx="1.18"/><rect class="cls-9" x="790.82" y="914.28" width="67.08" height="65.29" rx="1.18"/><rect class="cls-8" x="893.39" y="914.28" width="67.08" height="65.29" rx="1.18"/><rect class="cls-8" x="483.1" y="914.28" width="67.08" height="65.29" rx="1.18"/><rect class="cls-9" x="277.95" y="1015.52" width="67.08" height="65.29" rx="1.18"/><rect class="cls-9" x="380.52" y="1015.52" width="67.08" height="65.29" rx="1.18"/><rect class="cls-8" x="585.67" y="1015.52" width="67.08" height="65.29" rx="1.18"/><rect class="cls-9" x="688.24" y="1015.52" width="67.08" height="65.29" rx="1.18"/><rect class="cls-9" x="790.82" y="1015.52" width="67.08" height="65.29" rx="1.18"/><path class="cls-9" d="M926.38,1072l-32.31,8.81a1.18,1.18,0,0,1-1.18-1.18V1017.9a2.39,2.39,0,0,1,2.39-2.38h63.51a1.18,1.18,0,0,1,1.18,1.18l.41,27.3s-24,20-24,20.08C935.8,1065.1,927,1072,926.38,1072Z"/><rect class="cls-9" x="483.1" y="1015.52" width="67.08" height="65.29" rx="1.18"/><path class="cls-5" d="M861.44,1031.64c-6.24,2.56-11.1,5-14.56,9.91a24,24,0,0,0-4.44,14.09c0,15.81,3.68,105.62,3.68,105.62l24.25-132.42Z"/><path class="cls-2" d="M996.92,1027,846.38,1161.26v-99A35.21,35.21,0,0,1,881.59,1027Z"/></svg>